# xmcd
#
# Track frame offsets:
#	150
#	11202
#	12148
#	23229
#	43716
#	51728
#	60725
#	72008
#	80905
#	89743
#	97233
#	108480
#	120999
#	130476
#	139561
#	154473
#	179610
#	187467
#	190387
#	198780
#	216168
#	231280
#	240470
#	265173
#	276002
#	277338
#	298959
#
# Disc length: 4724 seconds
# Revision: 0
# Processed by: cddbd v1.5.2PL0 Copyright (c) Steve Scherf et al.
# Submitted via: dBpowerAMP V12.0
#
DISCID=b512721b
DTITLE=12.3.1943 - 10.8.1943 - Tagebuch CD3
DYEAR=2009
DGENRE=
TTITLE0=055
TTITLE1=056
TTITLE2=057
TTITLE3=058
TTITLE4=059
TTITLE5=060
TTITLE6=061
TTITLE7=062
TTITLE8=063
TTITLE9=064
TTITLE10=065
TTITLE11=066
TTITLE12=067
TTITLE13=068
TTITLE14=069
TTITLE15=070
TTITLE16=071
TTITLE17=072
TTITLE18=073
TTITLE19=074
TTITLE20=075
TTITLE21=076
TTITLE22=077
TTITLE23=078
TTITLE24=079
TTITLE25=080
TTITLE26=081
EXTD=
EXTT0=
EXTT1=
EXTT2=
EXTT3=
EXTT4=
EXTT5=
EXTT6=
EXTT7=
EXTT8=
EXTT9=
EXTT10=
EXTT11=
EXTT12=
EXTT13=
EXTT14=
EXTT15=
EXTT16=
EXTT17=
EXTT18=
EXTT19=
EXTT20=
EXTT21=
EXTT22=
EXTT23=
EXTT24=
EXTT25=
EXTT26=
PLAYORDER=
